<svg id="Layer_1" data-name="Layer 1" xmlns="http://www.w3.org/2000/svg" xmlns:xlink="http://www.w3.org/1999/xlink" viewBox="0 0 1920 1080"><defs><style>.cls-1{fill:#fff;}.cls-2{fill:url(#linear-gradient);}</style><linearGradient id="linear-gradient" x1="858.59" y1="678.22" x2="1062.3" y2="399.27" gradientUnits="userSpaceOnUse"><stop offset="0" stop-color="#f15a24"/><stop offset="1" stop-color="#f19024"/></linearGradient></defs><rect class="cls-1" width="1920" height="1080"/><path class="cls-2" d="M863.89,749a19.54,19.54,0,0,1-19.55-19.54V692.88a13.24,13.24,0,0,1,26.48,0v19.8l159-159h-158A19.53,19.53,0,0,1,858,520.36L1041.65,336.7A19.54,19.54,0,0,1,1075,350.52v36.57a13.24,13.24,0,0,1-26.48,0v-19.8L888.59,527.22h158a19.54,19.54,0,0,1,13.82,33.35L877.69,743.26A19.49,19.49,0,0,1,863.89,749Z"/></svg>