<svg id="Layer_1" data-name="Layer 1" xmlns="http://www.w3.org/2000/svg" xmlns:xlink="http://www.w3.org/1999/xlink" viewBox="0 0 1920 1080"><defs><style>.cls-1{fill:#fff;}.cls-2{fill:url(#linear-gradient);}</style><linearGradient id="linear-gradient" x1="793.25" y1="767.59" x2="1128.65" y2="308.29" gradientUnits="userSpaceOnUse"><stop offset="0" stop-color="#f15a24"/><stop offset="1" stop-color="#f19024"/></linearGradient></defs><rect class="cls-1" width="1920" height="1080"/><path class="cls-2" d="M802,884.13A32.22,32.22,0,0,1,769.77,852V791.73a21.8,21.8,0,1,1,43.6,0v32.6l261.76-261.76H815a32.16,32.16,0,0,1-22.74-54.9l302.39-302.39A32.16,32.16,0,0,1,1149.57,228v60.21a21.81,21.81,0,0,1-43.61,0v-32.6L842.63,519h260.12a32.17,32.17,0,0,1,22.74,54.91L824.68,874.69A32.08,32.08,0,0,1,802,884.13Z"/></svg>