<svg id="Layer_1" data-name="Layer 1" xmlns="http://www.w3.org/2000/svg" xmlns:xlink="http://www.w3.org/1999/xlink" viewBox="0 0 1080 1080"><defs><style>.cls-1{fill:url(#linear-gradient);}.cls-2{fill:#fff;}</style><linearGradient id="linear-gradient" x1="540" y1="969.95" x2="540" y2="67.61" gradientUnits="userSpaceOnUse"><stop offset="0" stop-color="#f19024"/><stop offset="1" stop-color="#f15a24"/></linearGradient></defs><rect class="cls-1" width="1080" height="1080" rx="214.91"/><path class="cls-2" d="M382,884.13A32.22,32.22,0,0,1,349.77,852V791.73a21.8,21.8,0,0,1,43.6,0v32.6L655.13,562.57H395a32.16,32.16,0,0,1-22.74-54.9L674.66,205.28A32.16,32.16,0,0,1,729.57,228v60.21a21.81,21.81,0,0,1-43.61,0v-32.6L422.63,519H682.75a32.17,32.17,0,0,1,22.74,54.91L404.68,874.69A32.08,32.08,0,0,1,382,884.13Z"/></svg>